<?xml version="1.0" encoding="utf-8"?>
<!-- Generator: Adobe Illustrator 21.1.0, SVG Export Plug-In . SVG Version: 6.00 Build 0)  -->
<svg version="1.1" id="Lager_1" xmlns="http://www.w3.org/2000/svg" xmlns:xlink="http://www.w3.org/1999/xlink" x="0px" y="0px"
	 viewBox="0 0 511.9 511.9" style="enable-background:new 0 0 511.9 511.9;" xml:space="preserve">
<style type="text/css">
	.st0{fill:#3A3A3A;}
	.st1{fill:#232221;}
	.st2{fill:#FD003A;}
	.st3{fill:#E50027;}
	.st4{fill:#FEA832;}
	.st5{fill:#FE9923;}
	.st6{fill:#FEDB41;}
	.st7{fill:#FFCC33;}
	.st8{fill:#32D736;}
	.st9{fill:#10BB67;}
	.st10{fill:#CCEFFF;}
	.st11{fill:#ACE3FC;}
</style>
<path class="st0" d="M430.4,58.8L430.4,58.8c-5.2,0-9.5-4.3-9.5-9.5v-30c0-5.2,4.3-9.5,9.5-9.5l0,0c5.2,0,9.5,4.3,9.5,9.5v30
	C439.9,54.5,435.6,58.8,430.4,58.8z"/>
<g>
	<path class="st1" d="M430.4,9.8v49c5.2,0,9.5-4.3,9.5-9.5v-30C439.9,14.1,435.6,9.8,430.4,9.8z"/>
</g>
<g>
	<path class="st2" d="M472.4,59.9v399.7c0,3.6-2.6,6.4-6,6.4h-72.1c-3.4,0-6-2.8-6-6.4V59.9c0-3.6,2.6-6.4,6-6.4h72.1
		C469.8,53.5,472.4,56.3,472.4,59.9z"/>
	<path class="st3" d="M472.4,59.9v399.7c0,3.6-2.6,6.4-6,6.4h-36.1V53.5h36.1C469.8,53.5,472.4,56.3,472.4,59.9z"/>
</g>
<path class="st0" d="M194.4,58.8L194.4,58.8c-5.2,0-9.5-4.3-9.5-9.5v-30c0-5.2,4.3-9.5,9.5-9.5l0,0c5.2,0,9.5,4.3,9.5,9.5v30
	C203.9,54.5,199.6,58.8,194.4,58.8z"/>
<g>
	<path class="st1" d="M194.4,9.8v49c5.2,0,9.5-4.3,9.5-9.5v-30C203.9,14.1,199.6,9.8,194.4,9.8z"/>
</g>
<g>
	<path class="st2" d="M236.4,59.9v399.7c0,3.6-2.6,6.4-6,6.4h-72.1c-3.4,0-6-2.8-6-6.4V59.9c0-3.6,2.6-6.4,6-6.4h72.1
		C233.8,53.5,236.4,56.3,236.4,59.9z"/>
	<path class="st3" d="M236.4,59.9v399.7c0,3.6-2.6,6.4-6,6.4h-36.1V53.5h36.1C233.8,53.5,236.4,56.3,236.4,59.9z"/>
</g>
<path class="st0" d="M313,58.8L313,58.8c-5.2,0-9.5-4.3-9.5-9.5v-30c0-5.2,4.3-9.5,9.5-9.5l0,0c5.2,0,9.5,4.3,9.5,9.5v30
	C322.5,54.5,318.2,58.8,313,58.8z"/>
<g>
	<path class="st1" d="M313,9.8v49c5.2,0,9.5-4.3,9.5-9.5v-30C322.5,14.1,318.2,9.8,313,9.8z"/>
</g>
<g>
	<path class="st2" d="M355,59.9v399.7c0,3.6-2.6,6.4-6,6.4h-72.1c-3.4,0-6-2.8-6-6.4V59.9c0-3.6,2.6-6.4,6-6.4H349
		C352.3,53.5,355,56.3,355,59.9z"/>
	<path class="st3" d="M355,59.9v399.7c0,3.6-2.6,6.4-6,6.4h-36.1V53.5H349C352.3,53.5,355,56.3,355,59.9z"/>
</g>
<g>
	<path class="st2" d="M118.2,114.4v345.1c0,3.6-2.7,6.4-6,6.4H40.1c-3.3,0-6-2.9-6-6.4V114.4c0-3.6,2.7-6.4,6-6.4h72.1
		C115.5,108,118.2,110.9,118.2,114.4z"/>
	<path class="st3" d="M118.2,114.4v345.1c0,3.6-2.7,6.4-6,6.4H76.1V108h36.1C115.5,108,118.2,110.9,118.2,114.4z"/>
	<path class="st4" d="M111.8,105.9H40.5c-9.1,0-17.6,7.4-18.4,16.5c-0.9,10.7,7.5,19.6,18,19.6h18v6c0,10,8.1,18,18,18
		c2.3,0,4.6-0.5,6.6-1.3c2.4,8.5,10.6,14.5,20,13.2c9-1.2,15.5-9.2,15.5-18.3v-18.7c7.9-2.7,13.4-11.1,11.7-20.3
		C128.4,112,120.6,105.9,111.8,105.9z"/>
	<path class="st5" d="M129.9,120.7c1.7,9.2-3.8,17.5-11.7,20.3v18.7c0,9.1-6.5,17-15.5,18.3c-9.4,1.3-17.6-4.7-20-13.2
		c-2,0.8-4.3,1.3-6.6,1.3V106h35.7C120.6,105.9,128.4,112,129.9,120.7z"/>
	<path class="st6" d="M92.7,80.5L81.4,60.2c-1.1-1.8-3.1-2.8-5.3-2.8s-4.2,1-5.3,2.8L59.1,81.4c-0.7,1.9-1.1,4.4-1.1,6.4
		c0,10.2,8.4,18.4,18.7,18c8.9-0.3,16.4-7.3,17.3-16.2C94.3,87.3,94.1,84.3,92.7,80.5z"/>
	<path class="st7" d="M94.2,87.9c0,10-8.1,18-18,18V57.5c2.2,0,4.2,1,5.3,2.8l11.3,20.3C93.8,83.4,94.2,85.9,94.2,87.9z"/>
</g>
<g id="Lager_2">
	<path class="st8" d="M499.3,458.5c-1.2-2.8-3.1-4.5-5.2-4.5H23.4c-2,0-4,1.7-5.2,4.5c-1.1,2.6-1.1,6.2-0.2,9.1l12,37.8
		c1.1,3.2,3.1,5.3,5.4,5.3H482c2.3,0,4.3-2.1,5.4-5.3l12-37.8C500.3,464.7,500.3,461.2,499.3,458.5z"/>
	<path class="st9" d="M499.5,467.6l-12,37.8c-1.1,3.2-3.1,5.3-5.4,5.3H255.5V454h238.6c2,0,4,1.7,5.2,4.5
		C500.3,461.2,500.3,464.7,499.5,467.6z"/>
	<g>
		<path class="st10" d="M506.1,459.8c0,5.7-5.6,10.1-9,10.1H13.4c-3.4,0-8-4.4-8-10.1s4.6-10.1,8-10.1h483.7
			C500.5,449.7,506.1,454.1,506.1,459.8z"/>
		<path class="st11" d="M506.1,459.8c0,5.7-5.6,10.1-9,10.1H255.5v-20.2h241.6C500.5,449.7,506.1,454.1,506.1,459.8z"/>
	</g>
</g>
</svg>
