<?xml version="1.0" encoding="utf-8"?>
<!-- Generator: Adobe Illustrator 21.1.0, SVG Export Plug-In . SVG Version: 6.00 Build 0)  -->
<svg version="1.1" id="Lager_1" xmlns="http://www.w3.org/2000/svg" xmlns:xlink="http://www.w3.org/1999/xlink" x="0px" y="0px"
	 viewBox="0 0 511.9 511.9" style="enable-background:new 0 0 511.9 511.9;" xml:space="preserve">
<style type="text/css">
	.st0{fill:#3A3A3A;}
	.st1{fill:#232221;}
	.st2{fill:#FD003A;}
	.st3{fill:#E50027;}
	.st4{fill:#FEDB41;}
	.st5{fill:#FFCC33;}
	.st6{fill:#FEA832;}
	.st7{fill:#FE9923;}
	.st8{fill:#32D736;}
	.st9{fill:#10BB67;}
	.st10{fill:#CCEFFF;}
	.st11{fill:#ACE3FC;}
</style>
<path class="st0" d="M430.4,58.8L430.4,58.8c-5.2,0-9.5-4.3-9.5-9.5v-30c0-5.2,4.3-9.5,9.5-9.5l0,0c5.2,0,9.5,4.3,9.5,9.5v30
	C439.9,54.5,435.6,58.8,430.4,58.8z"/>
<g>
	<path class="st1" d="M430.4,9.8v49c5.2,0,9.5-4.3,9.5-9.5v-30C439.9,14.1,435.6,9.8,430.4,9.8z"/>
</g>
<g>
	<path class="st2" d="M354.6,114.4v345.1c0,3.6-2.7,6.4-6,6.4h-72.1c-3.3,0-6-2.9-6-6.4V114.4c0-3.6,2.7-6.4,6-6.4h72.1
		C351.9,108,354.6,110.9,354.6,114.4z"/>
	<path class="st3" d="M354.6,114.4v345.1c0,3.6-2.7,6.4-6,6.4h-36.1V108h36.1C351.9,108,354.6,110.9,354.6,114.4z"/>
	<path class="st4" d="M329.1,80.5l-11.3-20.3c-1.1-1.8-3.1-2.8-5.3-2.8s-4.2,1-5.3,2.8l-11.7,21.2c-0.7,1.9-1.1,4.4-1.1,6.4
		c0,10.2,8.4,18.4,18.7,18c8.9-0.3,16.4-7.3,17.3-16.2C330.7,87.3,330.5,84.3,329.1,80.5z"/>
	<path class="st5" d="M330.6,87.9c0,10-8.1,18-18,18V57.5c2.2,0,4.2,1,5.3,2.8l11.3,20.3C330.2,83.4,330.6,85.9,330.6,87.9z"/>
</g>
<g>
	<path class="st2" d="M472.4,59.9v399.7c0,3.6-2.6,6.4-6,6.4h-72.1c-3.4,0-6-2.8-6-6.4V59.9c0-3.6,2.6-6.4,6-6.4h72.1
		C469.8,53.5,472.4,56.3,472.4,59.9z"/>
	<path class="st3" d="M472.4,59.9v399.7c0,3.6-2.6,6.4-6,6.4h-36.1V53.5h36.1C469.8,53.5,472.4,56.3,472.4,59.9z"/>
</g>
<path class="st0" d="M312.4,58.8L312.4,58.8c-5.2,0-9.5-4.3-9.5-9.5v-30c0-5.2,4.3-9.5,9.5-9.5l0,0c5.2,0,9.5,4.3,9.5,9.5v30
	C321.9,54.5,317.6,58.8,312.4,58.8z"/>
<g>
	<path class="st1" d="M312.4,9.8v49c5.2,0,9.5-4.3,9.5-9.5v-30C321.9,14.1,317.6,9.8,312.4,9.8z"/>
</g>
<g>
	<path class="st2" d="M354.4,59.9v399.7c0,3.6-2.6,6.4-6,6.4h-72.1c-3.4,0-6-2.8-6-6.4V59.9c0-3.6,2.6-6.4,6-6.4h72.1
		C351.8,53.5,354.4,56.3,354.4,59.9z"/>
	<path class="st3" d="M354.4,59.9v399.7c0,3.6-2.6,6.4-6,6.4h-36.1V53.5h36.1C351.8,53.5,354.4,56.3,354.4,59.9z"/>
</g>
<g>
	<path class="st2" d="M118.9,163v296.5c0,3.6-2.7,6.5-6,6.5H40.8c-3.3,0-6-2.9-6-6.5V163c0-3.6,2.7-6.5,6-6.5h72.1
		C116.2,156.5,118.9,159.4,118.9,163z"/>
	<path class="st3" d="M118.9,163v296.5c0,3.6-2.7,6.5-6,6.5H76.8V156.5l0,0h36.1C116.2,156.5,118.9,159.4,118.9,163z"/>
	<path class="st6" d="M112.5,154H41.1c-9.1,0-17.6,7.4-18.4,16.5c-0.9,10.7,7.5,19.6,18,19.6h18l0,0v6c0,10,8.1,18,18,18
		c2.3,0,4.6-0.5,6.6-1.3l0,0c2.4,8.5,10.6,14.5,20,13.2c9-1.2,15.5-9.2,15.5-18.3V189l0,0c7.9-2.7,13.4-11.1,11.7-20.3
		C129,160.1,121.2,154,112.5,154z"/>
	<path class="st4" d="M93.4,128.6L93.4,128.6l-11.3-20.3c-1.1-1.8-3.1-2.8-5.3-2.8s-4.2,1-5.3,2.8l-11.7,21.2l0,0
		c-0.7,1.9-1.1,4.4-1.1,6.4c0,10.2,8.4,18.4,18.7,18c8.9-0.3,16.4-7.3,17.3-16.2C95,135.4,94.8,132.4,93.4,128.6z"/>
	<path class="st5" d="M94.8,136c0,10-8.1,18-18,18l0,0v-48.5l0,0c2.2,0,4.2,1,5.3,2.8l11.3,20.3l0,0C94.5,131.5,94.8,134,94.8,136z"
		/>
</g>
<g>
	<path class="st2" d="M236.7,114.4v345.1c0,3.6-2.7,6.4-6,6.4h-72.1c-3.3,0-6-2.9-6-6.4V114.4c0-3.6,2.7-6.4,6-6.4h72.1
		C234,108,236.7,110.9,236.7,114.4z"/>
	<path class="st3" d="M236.7,114.4v345.1c0,3.6-2.7,6.4-6,6.4h-36.1V108h36.1C234,108,236.7,110.9,236.7,114.4z"/>
	<path class="st6" d="M230.3,105.9H159c-9.1,0-17.6,7.4-18.4,16.5c-0.9,10.7,7.5,19.6,18,19.6h18v6c0,10,8.1,18,18,18
		c2.3,0,4.6-0.5,6.6-1.3c2.4,8.5,10.6,14.5,20,13.2c9-1.2,15.5-9.2,15.5-18.3v-18.7c7.9-2.7,13.4-11.1,11.7-20.3
		C246.9,112,239.1,105.9,230.3,105.9z"/>
	<path class="st7" d="M248.4,120.7c1.7,9.2-3.8,17.5-11.7,20.3v18.7c0,9.1-6.5,17-15.5,18.3c-9.4,1.3-17.6-4.7-20-13.2
		c-2,0.8-4.3,1.3-6.6,1.3V106h35.7C239.1,105.9,246.9,112,248.4,120.7z"/>
	<path class="st4" d="M211.2,80.5l-11.3-20.3c-1.1-1.8-3.1-2.8-5.3-2.8s-4.2,1-5.3,2.8l-11.7,21.2c-0.7,1.9-1.1,4.4-1.1,6.4
		c0,10.2,8.4,18.4,18.7,18c8.9-0.3,16.4-7.3,17.3-16.2C212.8,87.3,212.6,84.3,211.2,80.5z"/>
	<path class="st5" d="M212.7,87.9c0,10-8.1,18-18,18V57.5c2.2,0,4.2,1,5.3,2.8l11.3,20.3C212.3,83.4,212.7,85.9,212.7,87.9z"/>
</g>
<g>
	<path class="st2" d="M236.7,114.4v345.1c0,3.6-2.7,6.4-6,6.4h-72.1c-3.3,0-6-2.9-6-6.4V114.4c0-3.6,2.7-6.4,6-6.4h72.1
		C234,108,236.7,110.9,236.7,114.4z"/>
	<path class="st3" d="M236.7,114.4v345.1c0,3.6-2.7,6.4-6,6.4h-36.1V108h36.1C234,108,236.7,110.9,236.7,114.4z"/>
	<path class="st6" d="M230.3,105.9H159c-9.1,0-17.6,7.4-18.4,16.5c-0.9,10.7,7.5,19.6,18,19.6h18v6c0,10,8.1,18,18,18
		c2.3,0,4.6-0.5,6.6-1.3c2.4,8.5,10.6,14.5,20,13.2c9-1.2,15.5-9.2,15.5-18.3v-18.7c7.9-2.7,13.4-11.1,11.7-20.3
		C246.9,112,239.1,105.9,230.3,105.9z"/>
	<path class="st7" d="M248.4,120.7c1.7,9.2-3.8,17.5-11.7,20.3v18.7c0,9.1-6.5,17-15.5,18.3c-9.4,1.3-17.6-4.7-20-13.2
		c-2,0.8-4.3,1.3-6.6,1.3V106h35.7C239.1,105.9,246.9,112,248.4,120.7z"/>
	<path class="st4" d="M211.2,80.5l-11.3-20.3c-1.1-1.8-3.1-2.8-5.3-2.8s-4.2,1-5.3,2.8l-11.7,21.2c-0.7,1.9-1.1,4.4-1.1,6.4
		c0,10.2,8.4,18.4,18.7,18c8.9-0.3,16.4-7.3,17.3-16.2C212.8,87.3,212.6,84.3,211.2,80.5z"/>
	<path class="st5" d="M212.7,87.9c0,10-8.1,18-18,18V57.5c2.2,0,4.2,1,5.3,2.8l11.3,20.3C212.3,83.4,212.7,85.9,212.7,87.9z"/>
</g>
<g>
	<g>
		<path class="st1" d="M322.5,19.3"/>
	</g>
</g>
<g id="Lager_2">
	<path class="st8" d="M499.3,458.5c-1.2-2.8-3.1-4.5-5.2-4.5H23.4c-2,0-4,1.7-5.2,4.5c-1.1,2.6-1.1,6.2-0.2,9.1l12,37.8
		c1.1,3.2,3.1,5.3,5.4,5.3H482c2.3,0,4.3-2.1,5.4-5.3l12-37.8C500.3,464.7,500.3,461.2,499.3,458.5z"/>
	<path class="st9" d="M499.5,467.6l-12,37.8c-1.1,3.2-3.1,5.3-5.4,5.3H255.5V454h238.6c2,0,4,1.7,5.2,4.5
		C500.3,461.2,500.3,464.7,499.5,467.6z"/>
	<g>
		<path class="st10" d="M506.1,459.8c0,5.7-5.6,10.1-9,10.1H13.4c-3.4,0-8-4.4-8-10.1s4.6-10.1,8-10.1h483.7
			C500.5,449.7,506.1,454.1,506.1,459.8z"/>
		<path class="st11" d="M506.1,459.8c0,5.7-5.6,10.1-9,10.1H255.5v-20.2h241.6C500.5,449.7,506.1,454.1,506.1,459.8z"/>
	</g>
</g>
</svg>
