<?xml version="1.0" encoding="utf-8"?>
<!-- Generator: Adobe Illustrator 21.1.0, SVG Export Plug-In . SVG Version: 6.00 Build 0)  -->
<svg version="1.1" xmlns="http://www.w3.org/2000/svg" xmlns:xlink="http://www.w3.org/1999/xlink" x="0px" y="0px"
	 viewBox="0 0 511.9 511.9" style="enable-background:new 0 0 511.9 511.9;" xml:space="preserve">
<style type="text/css">
	.st0{fill:#32D736;}
	.st1{fill:#10BB67;}
	.st2{fill:#3A3A3A;}
	.st3{fill:#232221;}
	.st4{fill:#FD003A;}
	.st5{fill:#E50027;}
	.st6{fill:#FEA832;}
	.st7{fill:#FE9923;}
	.st8{fill:#FEDB41;}
	.st9{fill:#FFCC33;}
	.st10{fill:#CCEFFF;}
	.st11{fill:#ACE3FC;}
</style>
<g id="Layer_1">
	<path class="st0" d="M-4892,429.1c-3-4.5-7.8-7.2-12.9-7.2h-360c-5.1,0-9.9,2.7-12.9,7.2c-2.7,4.2-2.7,9.9-0.6,14.4l30,60
		c2.7,5.1,7.8,8.4,13.5,8.4h300c5.7,0,10.8-3.3,13.5-8.4l30-60C-4889.3,439-4889.3,433.3-4892,429.1z"/>
	<path class="st1" d="M-4891.4,443.5l-30,60c-2.7,5.1-7.8,8.4-13.5,8.4h-150v-90h180c5.1,0,9.9,2.7,12.9,7.2
		C-4889.3,433.3-4889.3,439-4891.4,443.5z"/>
	<path class="st2" d="M430.4,58.8L430.4,58.8c-5.2,0-9.5-4.3-9.5-9.5v-30c0-5.2,4.3-9.5,9.5-9.5h0c5.2,0,9.5,4.3,9.5,9.5v30
		C439.9,54.5,435.6,58.8,430.4,58.8z"/>
	<g>
		<path class="st3" d="M430.4,9.8v49c5.2,0,9.5-4.3,9.5-9.5v-30C439.9,14.1,435.6,9.8,430.4,9.8z"/>
	</g>
	<g>
		<path class="st4" d="M119.6,247.6V460c0,3.3-2.7,6-6,6H41.4c-3.3,0-6-2.7-6-6V247.6c0-3.3,2.7-6,6-6h72.1
			C116.9,241.6,119.6,244.3,119.6,247.6z"/>
		<path class="st5" d="M119.6,247.6V460c0,3.3-2.7,6-6,6H77.5V241.6h36.1C116.9,241.6,119.6,244.3,119.6,247.6z"/>
		<path class="st6" d="M113.2,217.5H41.9c-9.1,0-17.6,7.4-18.4,16.5c-0.9,10.7,7.5,19.6,18,19.6h18v6c0,10,8.1,18,18,18
			c2.3,0,4.6-0.5,6.6-1.3c2.4,8.5,10.6,14.5,20,13.2c9-1.2,15.5-9.2,15.5-18.3v-18.7c7.9-2.7,13.4-11.1,11.7-20.3
			C129.8,223.6,122,217.5,113.2,217.5z"/>
		<path class="st7" d="M131.3,232.3c1.7,9.2-3.8,17.5-11.7,20.3v18.7c0,9.1-6.5,17-15.5,18.3c-9.4,1.3-17.6-4.7-20-13.2
			c-2,0.8-4.3,1.3-6.6,1.3v-60.1h35.7C122,217.5,129.8,223.6,131.3,232.3z"/>
		<path class="st8" d="M94.1,192.1l-11.3-20.3c-1.1-1.8-3.1-2.8-5.3-2.8c-2.2,0-4.2,1-5.3,2.8l-11.7,21.2c-0.7,1.9-1.1,4.4-1.1,6.4
			c0,10.2,8.4,18.4,18.7,18c8.9-0.3,16.4-7.3,17.3-16.2C95.7,198.9,95.5,195.9,94.1,192.1z"/>
		<path class="st9" d="M95.5,199.5c0,10-8.1,18-18,18v-48.5c2.2,0,4.2,1,5.3,2.8l11.3,20.3C95.2,195,95.5,197.5,95.5,199.5z"/>
	</g>
	<g>
		<path class="st4" d="M236.8,163v296.5c0,3.6-2.7,6.5-6,6.5h-72.1c-3.3,0-6-2.9-6-6.5V163c0-3.6,2.7-6.5,6-6.5h72.1
			C234.1,156.5,236.8,159.4,236.8,163z"/>
		<path class="st5" d="M236.8,163v296.5c0,3.6-2.7,6.5-6,6.5h-36.1V156.5c0,0,0,0,0,0h36.1C234.1,156.5,236.8,159.4,236.8,163z"/>
		<path class="st6" d="M230.4,154H159c-9.1,0-17.6,7.4-18.4,16.5c-0.9,10.7,7.5,19.6,18,19.6h18c0,0,0,0,0,0v6c0,10,8.1,18,18,18
			c2.3,0,4.6-0.5,6.6-1.3c0,0,0,0,0,0c2.4,8.5,10.6,14.5,20,13.2c9-1.2,15.5-9.2,15.5-18.3V189c0,0,0,0,0,0
			c7.9-2.7,13.4-11.1,11.7-20.3C246.9,160.1,239.1,154,230.4,154z"/>
		<path class="st8" d="M211.3,128.6C211.3,128.6,211.3,128.6,211.3,128.6L200,108.3c-1.1-1.8-3.1-2.8-5.3-2.8s-4.2,1-5.3,2.8
			l-11.7,21.2c0,0,0,0,0,0c-0.7,1.9-1.1,4.4-1.1,6.4c0,10.2,8.4,18.4,18.7,18c8.9-0.3,16.4-7.3,17.3-16.2
			C212.9,135.4,212.7,132.4,211.3,128.6z"/>
		<path class="st9" d="M212.7,136c0,10-8.1,18-18,18c0,0,0,0,0,0v-48.5c0,0,0,0,0,0c2.2,0,4.2,1,5.3,2.8l11.3,20.3c0,0,0,0,0,0
			C212.4,131.5,212.7,134,212.7,136z"/>
	</g>
	<g>
		<path class="st4" d="M354.6,114.4v345.1c0,3.6-2.7,6.4-6,6.4h-72.1c-3.3,0-6-2.9-6-6.4V114.4c0-3.6,2.7-6.4,6-6.4h72.1
			C351.9,108,354.6,110.9,354.6,114.4z"/>
		<path class="st5" d="M354.6,114.4v345.1c0,3.6-2.7,6.4-6,6.4h-36.1V108h36.1C351.9,108,354.6,110.9,354.6,114.4z"/>
		<path class="st6" d="M348.2,105.9h-71.3c-9.1,0-17.6,7.4-18.4,16.5c-0.9,10.7,7.5,19.6,18,19.6h18v6c0,10,8.1,18,18,18
			c2.3,0,4.6-0.5,6.6-1.3c2.4,8.5,10.6,14.5,20,13.2c9-1.2,15.5-9.2,15.5-18.3v-18.7c7.9-2.7,13.4-11.1,11.7-20.3
			C364.8,112,357,105.9,348.2,105.9z"/>
		<path class="st7" d="M366.3,120.7c1.7,9.2-3.8,17.5-11.7,20.3v18.7c0,9.1-6.5,17-15.5,18.3c-9.4,1.3-17.6-4.7-20-13.2
			c-2,0.8-4.3,1.3-6.6,1.3v-60.1l35.7,0C357,105.9,364.8,112,366.3,120.7z"/>
		<path class="st8" d="M329.1,80.5l-11.3-20.3c-1.1-1.8-3.1-2.8-5.3-2.8s-4.2,1-5.3,2.8l-11.7,21.2c-0.7,1.9-1.1,4.4-1.1,6.4
			c0,10.2,8.4,18.4,18.7,18c8.9-0.3,16.4-7.3,17.3-16.2C330.7,87.3,330.5,84.3,329.1,80.5z"/>
		<path class="st9" d="M330.6,87.9c0,10-8.1,18-18,18V57.5c2.2,0,4.2,1,5.3,2.8l11.3,20.3C330.2,83.4,330.6,85.9,330.6,87.9z"/>
	</g>
	<g>
		<path class="st4" d="M472.4,59.9v399.7c0,3.6-2.6,6.4-6,6.4h-72.1c-3.4,0-6-2.8-6-6.4V59.9c0-3.6,2.6-6.4,6-6.4h72.1
			C469.8,53.5,472.4,56.3,472.4,59.9z"/>
		<path class="st5" d="M472.4,59.9v399.7c0,3.6-2.6,6.4-6,6.4h-36.1V53.5h36.1C469.8,53.5,472.4,56.3,472.4,59.9z"/>
	</g>
	<g>
		<path class="st10" d="M-4874.9,436.9c0,8.4-6.6,15-15,15h-405c-8.4,0-15-6.6-15-15c0-8.4,6.6-15,15-15h405
			C-4881.5,421.9-4874.9,428.5-4874.9,436.9z"/>
		<path class="st11" d="M-4874.9,436.9c0,8.4-6.6,15-15,15h-195v-30h195C-4881.5,421.9-4874.9,428.5-4874.9,436.9z"/>
	</g>
	<path class="st11" d="M-4889.9,331.9c-33.1,0-60,26.9-60,60s26.9,60,60,60s60-26.9,60-60S-4856.8,331.9-4889.9,331.9z
		 M-4889.9,421.9c-16.5,0-30-13.5-30-30s13.5-30,30-30s30,13.5,30,30S-4873.4,421.9-4889.9,421.9z"/>
	<g>
		<path class="st4" d="M354.6,114.4v345.1c0,3.6-2.7,6.4-6,6.4h-72.1c-3.3,0-6-2.9-6-6.4V114.4c0-3.6,2.7-6.4,6-6.4h72.1
			C351.9,108,354.6,110.9,354.6,114.4z"/>
		<path class="st5" d="M354.6,114.4v345.1c0,3.6-2.7,6.4-6,6.4h-36.1V108h36.1C351.9,108,354.6,110.9,354.6,114.4z"/>
		<path class="st6" d="M348.2,105.9h-71.3c-9.1,0-17.6,7.4-18.4,16.5c-0.9,10.7,7.5,19.6,18,19.6h18v6c0,10,8.1,18,18,18
			c2.3,0,4.6-0.5,6.6-1.3c2.4,8.5,10.6,14.5,20,13.2c9-1.2,15.5-9.2,15.5-18.3v-18.7c7.9-2.7,13.4-11.1,11.7-20.3
			C364.8,112,357,105.9,348.2,105.9z"/>
		<path class="st7" d="M366.3,120.7c1.7,9.2-3.8,17.5-11.7,20.3v18.7c0,9.1-6.5,17-15.5,18.3c-9.4,1.3-17.6-4.7-20-13.2
			c-2,0.8-4.3,1.3-6.6,1.3v-60.1l35.7,0C357,105.9,364.8,112,366.3,120.7z"/>
		<path class="st8" d="M329.1,80.5l-11.3-20.3c-1.1-1.8-3.1-2.8-5.3-2.8s-4.2,1-5.3,2.8l-11.7,21.2c-0.7,1.9-1.1,4.4-1.1,6.4
			c0,10.2,8.4,18.4,18.7,18c8.9-0.3,16.4-7.3,17.3-16.2C330.7,87.3,330.5,84.3,329.1,80.5z"/>
		<path class="st9" d="M330.6,87.9c0,10-8.1,18-18,18V57.5c2.2,0,4.2,1,5.3,2.8l11.3,20.3C330.2,83.4,330.6,85.9,330.6,87.9z"/>
	</g>
	<g>
		<g>
			<path class="st3" d="M322.5,19.3"/>
		</g>
	</g>
</g>
<g id="Lager_2">
	<path class="st0" d="M499.3,458.5c-1.2-2.8-3.1-4.5-5.2-4.5H23.4c-2,0-4,1.7-5.2,4.5c-1.1,2.6-1.1,6.2-0.2,9.1l12,37.8
		c1.1,3.2,3.1,5.3,5.4,5.3h446.6c2.3,0,4.3-2.1,5.4-5.3l12-37.8C500.3,464.7,500.3,461.2,499.3,458.5z"/>
	<path class="st1" d="M499.5,467.6l-12,37.8c-1.1,3.2-3.1,5.3-5.4,5.3H255.5V454h238.6c2,0,4,1.7,5.2,4.5
		C500.3,461.2,500.3,464.7,499.5,467.6z"/>
	<g>
		<path class="st10" d="M506.1,459.8c0,5.7-5.6,10.1-9,10.1H13.4c-3.4,0-8-4.4-8-10.1c0-5.7,4.6-10.1,8-10.1h483.7
			C500.5,449.7,506.1,454.1,506.1,459.8z"/>
		<path class="st11" d="M506.1,459.8c0,5.7-5.6,10.1-9,10.1H255.5v-20.2h241.6C500.5,449.7,506.1,454.1,506.1,459.8z"/>
	</g>
</g>
</svg>
