<?xml version="1.0" encoding="utf-8"?>
<!-- Generator: Adobe Illustrator 21.1.0, SVG Export Plug-In . SVG Version: 6.00 Build 0)  -->
<svg version="1.1" id="Layer_1" xmlns="http://www.w3.org/2000/svg" xmlns:xlink="http://www.w3.org/1999/xlink" x="0px" y="0px"
	 viewBox="0 0 512 512" style="enable-background:new 0 0 512 512;" xml:space="preserve">
<style type="text/css">
	.st0{fill:#FEA832;}
	.st1{fill:#FE9923;}
	.st2{fill:#713708;}
	.st3{fill:#994C0F;}
</style>
<g>
	
		<ellipse transform="matrix(0.7071 -0.7071 0.7071 0.7071 -105.5709 256.0502)" class="st0" cx="256.3" cy="255.5" rx="253.5" ry="253.5"/>
	<path class="st1" d="M436.2,77c98.6,99,98.5,259.2-0.3,358.1s-259.1,99-358.1,0.3L436.2,77z"/>
</g>
<path class="st2" d="M354,338.1c-24.8,0-45-20.2-45-45s20.2-45,45-45s45,20.2,45,45S378.8,338.1,354,338.1z"/>
<path class="st3" d="M256.3,124.8c-20.3,0-36.8-16.5-36.8-36.8s16.5-36.8,36.8-36.8s36.8,16.5,36.8,36.8S276.6,124.8,256.3,124.8z"
	/>
<path class="st2" d="M279,457.3c-16.5,0-30-13.5-30-30s13.5-30,30-30s30,13.5,30,30S295.5,457.3,279,457.3z"/>
<path class="st2" d="M436.1,211.9c-13.8,1.1-25.4-10.4-24.3-24.3c0.9-10.9,9.7-19.7,20.6-20.6c13.8-1.1,25.4,10.4,24.3,24.3
	C455.8,202.2,447,211,436.1,211.9z"/>
<path class="st3" d="M185.7,231.1c-16.5,0-30-13.5-30-30s13.5-30,30-30s30,13.5,30,30S202.2,231.1,185.7,231.1z"/>
<circle class="st2" cx="449.2" cy="300.7" r="15"/>
<circle class="st3" cx="85.9" cy="204.5" r="15"/>
<g>
	<path class="st3" d="M202.7,311.9c-7.3-6.8-17.4-10.9-28.2-11.2c-24.9-0.6-45.5,18.9-46.1,43.8c-0.3,11.7,3.9,22.3,10.9,30.3
		c7.9,9.5,19.7,15.5,32.9,15.8c24.9,0.6,45.5-18.9,46.1-43.8C218.7,332.7,212.7,320.3,202.7,311.9z"/>
	<path class="st2" d="M218.3,346.8c-0.6,24.9-21.2,44.5-46.1,43.8c-13.2-0.3-25-6.3-32.9-15.8l63.4-62.9
		C212.7,320.3,218.7,332.7,218.3,346.8z"/>
</g>
</svg>
